<svg width="56" height="56" viewBox="0 0 56 56" fill="none" xmlns="http://www.w3.org/2000/svg">
<rect width="56" height="56" rx="28" fill="white"/>
<path d="M21.6089 44C20.7281 44 19.974 43.6867 19.3468 43.06C18.7195 42.4333 18.4059 41.68 18.4059 40.8C18.4059 39.92 18.7195 39.1667 19.3468 38.54C19.974 37.9133 20.7281 37.6 21.6089 37.6C22.4897 37.6 23.2437 37.9133 23.871 38.54C24.4982 39.1667 24.8118 39.92 24.8118 40.8C24.8118 41.68 24.4982 42.4333 23.871 43.06C23.2437 43.6867 22.4897 44 21.6089 44ZM37.6237 44C36.7429 44 35.9888 43.6867 35.3616 43.06C34.7343 42.4333 34.4207 41.68 34.4207 40.8C34.4207 39.92 34.7343 39.1667 35.3616 38.54C35.9888 37.9133 36.7429 37.6 37.6237 37.6C38.5045 37.6 39.2585 37.9133 39.8858 38.54C40.513 39.1667 40.8266 39.92 40.8266 40.8C40.8266 41.68 40.513 42.4333 39.8858 43.06C39.2585 43.6867 38.5045 44 37.6237 44ZM20.2476 18.4L24.0912 26.4H35.3015L39.7056 18.4H20.2476ZM18.7262 15.2H42.348C42.9619 15.2 43.429 15.4733 43.7493 16.02C44.0696 16.5667 44.083 17.12 43.7894 17.68L38.1041 27.92C37.8105 28.4533 37.4168 28.8667 36.923 29.16C36.4292 29.4533 35.8887 29.6 35.3015 29.6H23.3705L21.6089 32.8H40.8266V36H21.6089C20.4078 36 19.5003 35.4733 18.8864 34.42C18.2725 33.3667 18.2458 32.32 18.8063 31.28L20.9683 27.36L15.203 15.2H12V12H17.2048L18.7262 15.2Z" fill="black"/>
</svg>
