<svg width="59" height="56" viewBox="0 0 59 56" fill="none" xmlns="http://www.w3.org/2000/svg">
<rect x="0.5" y="0.5" width="58" height="55" rx="27.5" fill="white"/>
<rect x="0.5" y="0.5" width="58" height="55" rx="27.5" stroke="white"/>
<path d="M29.3092 40.8C29.4152 40.8 29.5212 40.7733 29.6272 40.72C29.7332 40.6667 29.8127 40.6133 29.8657 40.56L42.9053 27.44C43.2233 27.12 43.4552 26.76 43.601 26.36C43.7467 25.96 43.8196 25.56 43.8196 25.16C43.8196 24.7333 43.7467 24.3267 43.601 23.94C43.4552 23.5533 43.2233 23.2133 42.9053 22.92L36.147 16.12C35.8554 15.8 35.5175 15.5667 35.1332 15.42C34.7489 15.2733 34.3448 15.2 33.9207 15.2C33.5232 15.2 33.1256 15.2733 32.7281 15.42C32.3305 15.5667 31.9727 15.8 31.6547 16.12L31.2174 16.56L34.1592 19.56C34.5568 19.9333 34.8483 20.36 35.0338 20.84C35.2194 21.32 35.3121 21.8267 35.3121 22.36C35.3121 23.48 34.9345 24.42 34.1791 25.18C33.4238 25.94 32.4895 26.32 31.3764 26.32C30.8464 26.32 30.3362 26.2267 29.8459 26.04C29.3556 25.8533 28.9249 25.5733 28.5538 25.2L25.5722 22.24L18.6152 29.24C18.5357 29.32 18.476 29.4067 18.4363 29.5C18.3965 29.5933 18.3766 29.6933 18.3766 29.8C18.3766 30.0133 18.4562 30.2067 18.6152 30.38C18.7742 30.5533 18.9597 30.64 19.1717 30.64C19.2778 30.64 19.3838 30.6133 19.4898 30.56C19.5958 30.5067 19.6753 30.4533 19.7283 30.4L25.1349 24.96L27.3612 27.2L21.9943 32.64C21.9148 32.72 21.8552 32.8067 21.8154 32.9C21.7757 32.9933 21.7558 33.0933 21.7558 33.2C21.7558 33.4133 21.8353 33.6 21.9943 33.76C22.1533 33.92 22.3389 34 22.5509 34C22.6569 34 22.7629 33.9733 22.8689 33.92C22.9749 33.8667 23.0544 33.8133 23.1075 33.76L28.5141 28.36L30.7403 30.6L25.3735 36.04C25.294 36.0933 25.2343 36.1733 25.1946 36.28C25.1548 36.3867 25.1349 36.4933 25.1349 36.6C25.1349 36.8133 25.2144 37 25.3735 37.16C25.5325 37.32 25.718 37.4 25.93 37.4C26.036 37.4 26.1354 37.38 26.2282 37.34C26.321 37.3 26.4071 37.24 26.4866 37.16L31.8932 31.76L34.1195 34L28.7129 39.44C28.6333 39.52 28.5737 39.6067 28.534 39.7C28.4942 39.7933 28.4743 39.8933 28.4743 40C28.4743 40.2133 28.5605 40.4 28.7327 40.56C28.905 40.72 29.0972 40.8 29.3092 40.8ZM29.2694 44C28.2888 44 27.4208 43.6733 26.6655 43.02C25.9102 42.3667 25.4662 41.5467 25.3337 40.56C24.4326 40.4267 23.6773 40.0533 23.0677 39.44C22.4581 38.8267 22.0871 38.0667 21.9546 37.16C21.0535 37.0267 20.3047 36.6467 19.7084 36.02C19.1121 35.3933 18.7477 34.64 18.6152 33.76C17.6081 33.6267 16.7865 33.1867 16.1504 32.44C15.5143 31.6933 15.1963 30.8133 15.1963 29.8C15.1963 29.2667 15.2957 28.7533 15.4944 28.26C15.6932 27.7667 15.9781 27.3333 16.3492 26.96L25.5722 17.72L30.7801 22.96C30.8331 23.04 30.9126 23.1 31.0186 23.14C31.1246 23.18 31.2307 23.2 31.3367 23.2C31.5752 23.2 31.774 23.1267 31.933 22.98C32.092 22.8333 32.1715 22.64 32.1715 22.4C32.1715 22.2933 32.1516 22.1867 32.1119 22.08C32.0721 21.9733 32.0125 21.8933 31.933 21.84L26.2481 16.12C25.9565 15.8 25.6186 15.5667 25.2343 15.42C24.85 15.2733 24.4459 15.2 24.0218 15.2C23.6243 15.2 23.2267 15.2733 22.8292 15.42C22.4316 15.5667 22.0738 15.8 21.7558 16.12L16.1504 21.8C15.9119 22.04 15.7131 22.32 15.5541 22.64C15.395 22.96 15.289 23.28 15.236 23.6C15.183 23.92 15.183 24.2467 15.236 24.58C15.289 24.9133 15.395 25.2267 15.5541 25.52L13.2483 27.84C12.7977 27.2267 12.4665 26.5533 12.2544 25.82C12.0424 25.0867 11.9629 24.3467 12.0159 23.6C12.0689 22.8533 12.2544 22.1267 12.5725 21.42C12.8905 20.7133 13.3278 20.08 13.8844 19.52L19.4898 13.88C20.1259 13.2667 20.8348 12.8 21.6167 12.48C22.3985 12.16 23.2002 12 24.0218 12C24.8434 12 25.6451 12.16 26.427 12.48C27.2088 12.8 27.9045 13.2667 28.5141 13.88L28.9514 14.32L29.3887 13.88C30.0248 13.2667 30.7337 12.8 31.5156 12.48C32.2974 12.16 33.0991 12 33.9207 12C34.7423 12 35.544 12.16 36.3259 12.48C37.1077 12.8 37.8034 13.2667 38.413 13.88L45.1315 20.64C45.7411 21.2533 46.2049 21.96 46.5229 22.76C46.841 23.56 47 24.3733 47 25.2C47 26.0267 46.841 26.8333 46.5229 27.62C46.2049 28.4067 45.7411 29.1067 45.1315 29.72L32.092 42.8C31.721 43.1733 31.2903 43.4667 30.8 43.68C30.3097 43.8933 29.7995 44 29.2694 44Z" fill="black"/>
</svg>
