<svg width="57" height="57" viewBox="0 0 57 57" fill="none" xmlns="http://www.w3.org/2000/svg">
<rect width="57" height="57" rx="28.5" fill="white"/>
<path d="M15.4875 39.6C14.5285 39.6 13.7075 39.2585 13.0245 38.5755C12.3415 37.8925 12 37.0715 12 36.1125V19.125H15.975V35.625H36.975V39.6H15.4875ZM22.4625 32.625C21.5035 32.625 20.6825 32.2835 19.9995 31.6005C19.3165 30.9175 18.975 30.0965 18.975 29.1375V17.25C18.975 16.291 19.3165 15.47 19.9995 14.787C20.6825 14.104 21.5035 13.7625 22.4625 13.7625H33.225L29.25 17.7375H22.95V28.65H39.975V22.275L43.95 18.3V29.1375C43.95 30.0965 43.6085 30.9175 42.9255 31.6005C42.2425 32.2835 41.4215 32.625 40.4625 32.625H22.4625ZM30.6109 26.625C29.9536 26.625 29.3232 26.4774 28.7197 26.1821C28.1162 25.8866 27.618 25.4717 27.225 24.9375C27.7045 24.9375 28.1064 24.7751 28.4306 24.4504C28.7549 24.1254 28.917 23.7227 28.917 23.2425C28.917 22.5362 29.1637 21.936 29.6572 21.4418C30.1507 20.9473 30.75 20.7 31.455 20.7C32.16 20.7 32.7563 20.9494 33.2438 21.4481C33.7313 21.9466 33.975 22.5521 33.975 23.2646C33.975 24.2049 33.65 25 33 25.65C32.35 26.3 31.5536 26.625 30.6109 26.625ZM36.1125 21.7875L32.775 18.45L38.925 12.3C39.1228 12.1 39.3534 12 39.6169 12C39.8806 12 40.1084 12.0959 40.3001 12.2876L42.3124 14.2999C42.5041 14.4916 42.6 14.7194 42.6 14.9831C42.6 15.2466 42.5 15.4772 42.3 15.675L36.1125 21.7875Z" fill="black"/>
</svg>
