<svg width="57" height="57" viewBox="0 0 57 57" fill="none" xmlns="http://www.w3.org/2000/svg">
<rect width="57" height="57" rx="28.5" fill="white"/>
<rect width="33" height="33" transform="translate(12 12)" fill="black" fill-opacity="0.01"/>
<path d="M18.8063 40.4624V36.8187H21.625V32.2812L12.1375 18.1187H34.7563L25.2688 32.2812V36.8187H28.0875V40.4624H18.8063ZM20.4563 24.5812H26.4375L28.4313 21.7624H18.4625L20.4563 24.5812ZM34.6834 40.4624C33.4028 40.4624 32.3156 40.0142 31.4219 39.1177C30.5281 38.2212 30.0813 37.1326 30.0813 35.852C30.0813 34.5714 30.5291 33.4843 31.4246 32.5905C32.3205 31.6968 33.4081 31.2499 34.6875 31.2499C34.864 31.2499 35.0324 31.2521 35.1928 31.2564C35.3532 31.2606 35.5056 31.2698 35.65 31.2843V18.1187H43.4875V23.4124H39.2938V35.8562C39.2938 37.1356 38.8455 38.2232 37.949 39.119C37.0525 40.0146 35.964 40.4624 34.6834 40.4624Z" fill="black"/>
</svg>
