<svg width="27" height="22" viewBox="0 0 27 22" fill="none" xmlns="http://www.w3.org/2000/svg">
<path d="M2.7 22C1.9575 22 1.32188 21.7307 0.793125 21.1922C0.264375 20.6536 0 20.0063 0 19.25V2.75C0 1.99375 0.264375 1.34635 0.793125 0.807813C1.32188 0.269271 1.9575 0 2.7 0H24.3C25.0425 0 25.6781 0.269271 26.2069 0.807813C26.7356 1.34635 27 1.99375 27 2.75V19.25C27 20.0063 26.7356 20.6536 26.2069 21.1922C25.6781 21.7307 25.0425 22 24.3 22H2.7ZM13.5 12.375L24.3 5.5V2.75L13.5 9.625L2.7 2.75V5.5L13.5 12.375Z" fill="white"/>
</svg>
