<?xml version="1.0" encoding="utf-8"?>
<!-- Generator: Adobe Illustrator 25.2.1, SVG Export Plug-In . SVG Version: 6.00 Build 0)  -->
<svg version="1.0" id="Layer_1" xmlns="http://www.w3.org/2000/svg" xmlns:xlink="http://www.w3.org/1999/xlink" x="0px" y="0px"
	 viewBox="0 0 693 540" style="enable-background:new 0 0 693 540;" xml:space="preserve">
<style type="text/css">
	.st0{display:none;}
	.st1{display:inline;}
	.st2{display:none;opacity:0.172;fill:#FFFFFF;enable-background:new    ;}
	.st3{fill-rule:evenodd;clip-rule:evenodd;fill:#FFFFFF;}
</style>
<g id="layer1">
	<g class="st0">
		<defs>
			<rect id="SVGID_1_" x="-93" y="-98.12" width="850.01" height="758.23"/>
		</defs>
		<use xlink:href="#SVGID_1_"  style="display:inline;overflow:visible;fill:#FFFFFF;"/>
		<clipPath id="SVGID_2_" class="st1">
			<use xlink:href="#SVGID_1_"  style="overflow:visible;"/>
		</clipPath>
	</g>
	<path id="path12" class="st2" d="M344.19-17.54l-59.86,198.29H71.07l115.98,88.7l47.84,39.15l-12.92,55.47l-46.14,145.91
		l119.72-85.62l52.38-32.4l52.38,32.4l119.72,85.62l-46.14-145.91l-12.92-55.47l47.84-39.15l115.98-88.7H411.53L367.92,38.58
		L344.19-17.54z"/>
	<g id="g2">
		<path id="path7" class="st3" d="M371.46,86.62C363,54.64,357.2,37.16,348.06-0.34c-44.25,116.2-61.01,173.82-78.56,177.42
			c-22.53,4.62-163.67,2.1-241.13,3.66c71.57,45.63,114.03,79.25,188.09,125.6c-29.18,55.98-34.83,85.49-48.35,117.79
			c-61.52-32.3-109.1-31.7-168.44-32.3c109.44,8.98,170.87,61.09,176.67,148.26c15.54-88.94,37.51-167.06,74.59-233.75
			c-66.57-43.54-130.17-87.6-157.45-108.47c32.98,0.9,173.65,0,192.79,0c9.34,0,46.98-86.39,61.79-156.21
			C348.06,41.67,352.58,56.33,371.46,86.62L371.46,86.62z"/>
		<path id="path7-9" class="st3" d="M315.01,197.88c8.32-31.27,25.64-80.87,33.05-111.26c31.83,70.67,41.4,94.13,57.69,94.13
			c29.65,0,195.29-1.26,258.07,0c-79.63,56.76-135.4,86.8-189.32,125.6c33.03,67.12,40.93,84.98,50.31,117.79
			c49.1-16.63,50.12-32.26,167.75-32.26c-75.87,10.19-175.58,53.94-171.42,148.22c-6.04-63.34-37.79-164.59-80.5-233.75
			c79.31-54.27,105.4-65.77,170.51-108.47c-26.73,0.73-187.01,2.67-211.42,0c-17.37-1.9-30.67-17.13-51.66-60.91
			C343.77,146.38,326.91,180.94,315.01,197.88L315.01,197.88z"/>
		<path id="path5" class="st3" d="M212.06,522.96l136-85.85l137.34,85.85l-137.34-99.44L212.06,522.96z"/>
	</g>
</g>
</svg>
